<?xml version="1.0" encoding="UTF-8"?>
<!DOCTYPE svg PUBLIC "-//W3C//DTD SVG 1.1//EN" "http://www.w3.org/Graphics/SVG/1.1/DTD/svg11.dtd">
<!-- Creator: CorelDRAW X7 -->
<svg xmlns="http://www.w3.org/2000/svg" xml:space="preserve" width="11811px" height="11811px" version="1.1" style="shape-rendering:geometricPrecision; text-rendering:geometricPrecision; image-rendering:optimizeQuality; fill-rule:evenodd; clip-rule:evenodd"
viewBox="0 0 11811 11811"
 xmlns:xlink="http://www.w3.org/1999/xlink">
 <defs>
  <style type="text/css">
   <![CDATA[
    .str0 {stroke:#F3F0E9;stroke-width:8.87951}
    .fil3 {fill:#0F291E}
    .fil0 {fill:#95B19B}
    .fil2 {fill:#A52019}
    .fil4 {fill:#ECBDAB}
    .fil5 {fill:#F3F0E9}
    .fil1 {fill:#2B2A29;fill-opacity:0.078431}
   ]]>
  </style>
 </defs>
 <g id="Layer_x0020_1">
  <metadata id="CorelCorpID_0Corel-Layer"/>
  <path class="fil0" d="M7136 3456c-249,0 -210,-202 -281,-390 -68,-176 -201,-270 -401,-270 -229,0 -682,308 -892,449 -185,125 -481,136 -691,37 -74,-34 -134,-88 -188,-143 -177,-182 -352,-1004 -977,-1004 -259,0 -596,226 -596,501 0,229 59,344 174,518 116,175 271,255 329,481 101,394 -107,730 -448,867 -408,163 -908,30 -1312,30 -243,0 -446,34 -621,210 -209,211 -300,505 -139,784 148,256 592,437 843,606 567,338 0,0 567,338 333,166 576,472 191,767 -189,145 -374,293 -560,441 -91,72 -273,303 -273,449 0,204 60,346 186,471 250,248 490,297 800,123 374,-209 822,-727 1243,-727 206,0 330,152 330,351 0,265 -83,692 224,692 177,0 275,-131 304,-281 30,-152 5,-400 83,-513 133,-193 422,-168 537,29 157,267 -110,1193 180,1450 262,231 504,-69 504,-386 0,-243 -22,-733 18,-941 76,-398 438,-636 845,-636 391,0 497,50 829,172 231,85 443,220 662,329 233,115 448,238 716,285 160,27 376,31 509,-19 247,-92 468,-331 468,-671 0,-308 -63,-496 -219,-729 -95,-141 -201,-273 -316,-397l-215 -222c-181,-180 -136,-369 218,-367 333,2 1033,11 1033,-437 0,-201 -148,-417 -266,-500 -152,-108 -346,-177 -520,-247 -276,-111 -415,-105 -611,-348 -168,-209 -186,-592 -11,-803 284,-343 481,-374 481,-945 0,-123 -13,-231 -46,-327 -61,-178 -161,-328 -322,-424 -128,-76 -211,-102 -367,-102 -226,0 -499,161 -730,346 -113,102 -232,204 -343,307 -149,141 -291,283 -436,426 -121,118 -316,370 -493,370z"/>
  <g id="_2263205716224">
   <path class="fil1" d="M7460 6064l0 -220c15,-262 70,-527 202,-751 216,-366 755,-494 1055,-134 62,74 115,154 154,243 41,95 60,197 72,298 13,95 21,192 25,288 8,124 -4,251 -37,370 -4,21 -10,40 -17,60 -43,111 -148,198 -271,220 -111,23 -251,-8 -327,-90 -39,-41 -64,-101 -64,-157 0,-10 0,-20 2,-30 -39,0 -78,-7 -117,-13 -8,-2 -19,-4 -29,-6 0,2 0,4 0,6 -10,54 -16,111 -43,159 -19,32 -54,55 -89,72 -53,28 -117,41 -177,35 -47,-5 -92,-15 -137,-29 -37,-13 -72,-29 -101,-56 -47,-43 -72,-107 -87,-168 -7,-33 -11,-65 -14,-97zm660 -385c-10,0 -20,-2 -30,-2 -17,-60 28,-158 76,-197 20,-15 59,-27 82,-15 39,25 60,72 68,117 2,17 4,58 -8,70 -31,31 -144,27 -188,27z"/>
   <path class="fil1" d="M3720 5898c-24,-1 -48,-1 -72,0 11,-53 25,-107 39,-160 21,-74 42,-148 66,-223 43,-133 91,-269 99,-409 2,-37 -2,-74 -14,-111 -15,-49 -50,-95 -91,-127 -53,-42 -115,-75 -181,-91 -58,-14 -121,-16 -181,-10 -64,6 -130,24 -181,63 -76,56 -130,142 -165,231 -47,119 -74,249 -90,376 -29,210 -35,430 10,638 17,78 37,156 76,226 23,41 56,80 93,107 53,39 115,64 179,78 66,14 134,18 203,15 57,-1 124,-5 204,-15 80,-10 162,-24 236,-53 49,-17 95,-39 129,-68 114,-103 125,-282 5,-379 -37,-28 -79,-51 -128,-68 -72,-22 -151,-20 -236,-20z"/>
   <path class="fil1" d="M5139 6372c446,-155 510,-689 485,-1110 -4,-95 -12,-215 -60,-297 -31,-56 -86,-99 -144,-122 -89,-35 -209,-10 -299,25 -75,31 -120,97 -124,179 -2,21 -2,39 -2,60 0,4 0,10 0,14 0,56 4,112 4,165 -2,62 -6,219 -15,281 -26,227 -266,324 -231,0 4,-45 13,-93 25,-138 31,-118 83,-229 93,-351 6,-72 -23,-153 -70,-206 -54,-60 -126,-110 -204,-128 -246,-60 -440,231 -479,481 -2,14 -4,28 -6,43 -2,10 -4,21 -7,31 -16,109 -20,221 -16,332 2,111 16,225 49,330 40,120 114,237 217,308 93,66 206,105 316,128 155,31 322,26 468,-25zm2187 -60c99,-274 149,-900 149,-1236 0,-338 -307,-456 -524,-196 -167,200 -359,594 -433,477 -104,-128 -260,-463 -351,-522 -155,-106 -384,-97 -464,72 -62,128 -46,625 -36,767 17,219 9,469 139,646 119,161 447,116 532,-45 70,-132 -27,-502 -60,-646 70,83 217,194 318,157 91,-33 157,-116 219,-190 -37,208 -153,551 -85,751 95,285 493,246 596,-35z"/>
  </g>
  <circle class="fil2" cx="2145" cy="4483" r="445"/>
  <circle class="fil2" cx="10278" cy="5121" r="408"/>
  <circle class="fil2" cx="3853" cy="7995" r="353"/>
  <circle class="fil3" cx="8325" cy="8303" r="887"/>
  <circle class="fil3" cx="2332" cy="7019" r="607"/>
  <circle class="fil4" cx="5042" cy="3420" r="627"/>
  <circle class="fil4" cx="9203" cy="3959" r="513"/>
  <path class="fil5 str0" d="M4200 6715c-16,-5 -34,-2 -50,-2 -19,0 -37,1 -55,1 -36,1 -72,2 -109,3 -35,1 -79,-1 -82,44 -3,35 -2,71 -3,107 -2,80 -4,165 -6,245 -1,45 70,45 71,0 1,-58 3,-122 4,-181 1,-48 0,-97 3,-146 32,-2 65,-1 97,-2 20,0 41,-1 61,-1 10,0 20,0 29,0 2,0 4,0 6,0 0,7 0,15 -1,22 -1,15 -2,29 -4,44 -3,29 -6,59 -8,88 -4,59 -4,118 -1,177 2,45 72,45 70,0 -3,-69 -2,-139 4,-208 3,-36 8,-72 10,-108 2,-32 4,-73 -36,-83l0 0zm469 395c-2,-17 -3,-35 -5,-53 -1,-10 -2,-20 -3,-29 -3,-27 -6,-53 -9,-79 -2,-21 -2,-41 -4,-61 -3,-26 -7,-51 -10,-76 -4,-30 -17,-50 -36,-72 -15,-18 -28,-27 -59,-27 -17,0 -31,3 -42,12 -24,17 -37,33 -51,59 -16,30 -21,65 -28,98 -5,23 -6,39 -10,62 -4,17 -10,47 -14,68 -4,32 -7,36 -13,71 -1,7 -8,39 -9,50 -4,19 16,13 35,15 11,0 18,0 29,0 10,0 15,-3 18,-23 2,-19 8,-64 9,-82 4,-21 -1,-30 19,-28 33,1 39,-1 76,-1 19,0 30,-4 30,5 0,11 -1,22 -1,33 0,1 2,16 2,32 1,21 0,21 1,42 2,16 9,22 25,22 11,-1 17,0 35,0 20,-3 16,-13 15,-38l0 0zm-94 -155c-34,2 -77,3 -96,2 -7,0 -4,-8 -1,-27 1,-11 4,-21 6,-32 5,-22 11,-43 17,-65 5,-21 20,-33 40,-34 18,-1 30,8 33,26 2,13 3,26 4,39 3,26 4,51 6,77 0,11 2,13 -9,14l0 0zm333 2c0,-45 1,-89 0,-133 -1,-26 -6,-53 -11,-79 -2,-14 -11,-23 -23,-29 -10,-5 -24,-3 -35,9 -10,15 -16,39 -15,64 1,19 -1,45 -1,64 0,31 -1,21 -1,52 0,18 0,45 0,63 1,13 3,28 3,62 1,35 3,61 9,86 3,13 10,25 25,29 12,4 24,6 35,-4 7,-6 12,-14 14,-23 1,-9 3,-19 3,-28 -1,-44 -2,-89 -3,-133l0 0zm457 146c-3,-14 -8,-40 -10,-48 -5,-29 -13,-56 -16,-70 -5,-26 -11,-47 -18,-76 -8,-34 -12,-49 -23,-86 -8,-28 -17,-54 -26,-75 -4,-8 -13,-24 -25,-31 -15,-5 -28,-4 -46,-4 -30,1 -42,19 -51,38 -4,10 -9,20 -12,30 -7,22 -19,62 -25,85 -7,28 -17,56 -24,84 -10,42 -14,52 -26,94 -6,24 -10,52 -8,76 1,13 15,27 28,28 24,0 195,0 248,0 24,0 40,-23 34,-45l0 0zm-98 -16c-25,0 -105,0 -116,0 -7,0 -19,-9 -20,-17 -1,-16 4,-32 7,-48 4,-19 10,-39 16,-60 5,-18 8,-36 13,-60 3,-11 10,-29 13,-44 2,-6 8,-27 10,-33 4,-12 10,-22 24,-22 6,0 9,0 13,3 5,4 9,18 11,23 5,14 9,35 11,48 6,29 8,36 12,58 3,19 7,29 10,46 1,9 5,27 7,46 1,5 4,22 5,31 3,15 -5,29 -16,29l0 0zm549 -265c-5,-14 -11,-28 -18,-41 -13,-25 -32,-47 -58,-59 -8,-5 -18,-8 -28,-8 -22,-2 -43,-1 -64,4 -17,5 -33,11 -48,24 -15,14 -29,30 -41,48 -13,19 -25,41 -34,63 -7,17 -13,36 -17,55 -6,28 -12,57 -11,86 0,13 1,24 5,41 5,28 11,37 18,55 4,9 17,24 24,30 16,11 23,14 42,21 25,7 32,7 49,7 25,0 44,-4 62,-9 30,-7 34,-9 63,-32 26,-24 30,-43 37,-59 6,-15 9,-28 15,-44 7,-23 10,-43 11,-59 2,-24 2,-30 4,-47 2,-26 -2,-52 -11,-76l0 0zm-68 63c0,16 -5,47 -5,57 -3,36 -5,35 -14,70 -5,19 -10,32 -26,44 -13,10 -21,12 -41,15 -20,1 -34,-2 -61,-19 -17,-11 -24,-43 -24,-85 3,-47 5,-55 19,-91 3,-8 19,-48 41,-62 22,-17 44,-18 73,-14 48,5 38,85 38,85l0 0zm503 -150c-30,-11 -61,-21 -94,-22 -35,-1 -70,1 -105,2 -34,1 -65,16 -95,29 -17,8 -23,25 -16,41 7,15 24,22 41,16 15,-5 30,-10 44,-15 17,-7 35,-9 54,-9 0,3 1,5 1,7 1,79 1,157 2,235 0,32 0,65 1,97 0,17 10,29 26,31 20,3 37,-13 36,-34 -1,-95 -2,-190 -2,-285 -1,-16 -1,-34 -1,-53 9,1 16,0 23,2 21,6 41,12 61,19 17,5 34,-2 40,-17 8,-17 0,-37 -16,-44l0 0zm428 87c-5,-14 -11,-28 -18,-41 -13,-25 -32,-47 -58,-59 -8,-5 -18,-8 -28,-8 -21,-2 -43,-1 -64,4 -17,5 -33,11 -47,24 -16,14 -29,30 -41,48 -14,19 -26,41 -35,63 -7,17 -13,36 -17,55 -6,28 -12,57 -11,86 1,13 2,24 5,41 5,28 11,37 18,55 4,9 18,24 24,30 16,11 23,14 42,21 25,7 32,7 49,7 25,0 44,-4 62,-9 30,-7 34,-9 63,-32 26,-24 30,-43 37,-59 6,-15 9,-28 15,-44 8,-23 10,-43 11,-59 3,-24 3,-30 4,-47 2,-26 -1,-52 -11,-76l0 0zm-67 63c0,16 -6,47 -6,57 -3,36 -5,35 -14,70 -5,19 -10,32 -26,44 -13,10 -20,12 -41,15 -20,1 -34,-2 -61,-19 -16,-11 -24,-43 -24,-85 3,-47 5,-55 19,-91 3,-8 19,-48 41,-62 22,-17 44,-18 73,-14 48,5 38,85 39,85l0 0zm533 -170c-16,-5 -34,-2 -51,-2 -18,0 -36,1 -54,1 -36,1 -72,2 -109,3 -35,1 -79,-1 -82,44 -3,35 -2,71 -3,107 -2,80 -4,165 -6,245 -1,45 70,45 71,0 1,-58 3,-122 4,-181 1,-48 0,-97 3,-146 32,-2 65,-1 97,-2 20,0 41,-1 61,-1 10,0 20,0 29,0 2,0 4,0 6,0 0,7 0,15 -1,22 -1,15 -2,29 -4,44 -3,29 -6,59 -8,88 -4,59 -4,118 -1,177 2,45 72,45 70,0 -3,-69 -2,-139 4,-208 3,-36 8,-72 10,-108 2,-32 4,-73 -36,-83l0 0zm501 107c-5,-14 -11,-28 -18,-41 -13,-25 -32,-47 -58,-59 -9,-5 -18,-8 -28,-8 -22,-2 -43,-1 -64,4 -17,5 -33,11 -48,24 -16,14 -29,30 -41,48 -13,19 -25,41 -34,63 -8,17 -13,36 -17,55 -6,28 -13,57 -11,86 0,13 1,24 5,41 5,28 11,37 18,55 4,9 17,24 24,30 16,11 23,14 42,21 25,7 31,7 49,7 25,0 44,-4 62,-9 30,-7 34,-9 63,-32 25,-24 30,-43 37,-59 6,-15 9,-28 15,-44 7,-23 9,-43 11,-59 2,-24 2,-30 4,-47 2,-26 -2,-52 -11,-76l0 0zm-68 63c0,16 -5,47 -5,57 -3,36 -5,35 -14,70 -5,19 -10,32 -26,44 -14,10 -21,12 -41,15 -20,1 -35,-2 -61,-19 -17,-11 -24,-43 -24,-85 3,-47 5,-55 19,-91 3,-8 19,-48 41,-62 22,-17 44,-18 73,-14 48,5 38,85 38,85l0 0zm457 195c-26,2 -52,2 -77,1 -14,0 -29,-1 -43,-3 -3,0 -7,-1 -10,-2 -11,-5 -15,-13 -10,-23 5,-11 12,-21 18,-31 12,-18 24,-37 35,-55 6,-9 10,-18 15,-27 2,-3 2,-6 2,-10 0,-3 0,-6 -2,-10 -5,-8 -9,-18 -15,-26 -11,-19 -23,-37 -35,-56 -6,-10 -13,-19 -18,-30 -5,-10 -1,-19 10,-23 3,-1 7,-3 10,-3 14,-1 29,-3 43,-3 25,0 51,0 77,1 15,1 25,-6 33,-17 7,-11 5,-22 3,-33 -2,-10 -11,-10 -18,-13 -5,-2 -11,-4 -18,-4 -12,0 -24,0 -37,0 -57,2 -115,1 -172,11 -13,2 -22,9 -27,20 -8,17 -10,36 -3,54 6,15 13,29 22,43 14,25 29,49 44,73 3,5 4,11 5,16 -1,6 -2,11 -5,16 -15,25 -30,49 -44,73 -9,14 -16,29 -22,44 -7,18 -5,36 3,53 5,11 14,18 27,20 57,10 115,9 172,11 13,1 25,1 37,0 7,0 13,-1 18,-4 7,-2 16,-3 18,-12 2,-12 4,-23 -3,-33 -8,-11 -18,-18 -33,-18l0 0z"/>
  <g id="_2263205707040">
   <path class="fil5" d="M7400 6004l0 -220c15,-262 70,-527 202,-751 216,-366 755,-494 1055,-134 62,74 115,154 154,243 41,95 60,197 72,298 13,95 21,192 25,288 8,124 -4,251 -37,370 -4,21 -10,40 -17,60 -43,111 -148,198 -271,220 -111,23 -251,-8 -327,-90 -39,-41 -64,-101 -64,-157 0,-10 0,-20 2,-30 -39,0 -78,-7 -117,-13 -8,-2 -19,-4 -29,-6 0,2 0,4 0,6 -10,54 -16,111 -43,159 -19,32 -54,55 -89,72 -53,28 -117,41 -177,35 -47,-5 -92,-15 -137,-29 -37,-13 -72,-29 -101,-56 -47,-43 -72,-107 -87,-168 -7,-33 -11,-65 -14,-97zm660 -385c-10,0 -20,-2 -30,-2 -17,-60 28,-158 76,-197 20,-15 59,-27 82,-15 39,25 60,72 68,117 2,17 4,58 -8,70 -31,31 -144,27 -188,27z"/>
   <path class="fil5" d="M3660 5838c-24,-1 -48,-1 -72,0 11,-53 25,-107 39,-160 21,-74 42,-148 66,-223 43,-133 91,-269 99,-409 2,-37 -2,-74 -14,-111 -15,-49 -50,-95 -91,-127 -53,-42 -115,-75 -181,-91 -58,-14 -121,-16 -181,-10 -64,6 -130,24 -181,63 -76,56 -130,142 -165,231 -47,119 -74,249 -90,376 -29,210 -35,430 10,638 17,78 37,156 76,226 23,41 56,80 93,107 53,39 115,64 179,78 66,14 134,18 203,15 57,-1 124,-5 204,-15 80,-10 162,-24 236,-53 49,-17 95,-39 129,-68 114,-103 125,-282 5,-379 -37,-28 -79,-51 -128,-68 -72,-22 -151,-20 -236,-20z"/>
   <path class="fil5" d="M5079 6312c446,-155 510,-689 485,-1110 -4,-95 -12,-215 -60,-297 -31,-56 -86,-99 -144,-122 -89,-35 -209,-10 -299,25 -75,31 -120,97 -124,179 -2,21 -2,39 -2,60 0,4 0,10 0,14 0,56 4,112 4,165 -2,62 -6,219 -15,281 -26,227 -266,324 -231,0 4,-45 13,-93 25,-138 31,-118 83,-229 93,-351 6,-72 -23,-153 -70,-206 -54,-60 -126,-110 -204,-128 -246,-60 -440,231 -479,481 -2,14 -4,28 -6,43 -2,10 -4,21 -7,31 -16,109 -20,221 -16,332 2,111 16,225 49,330 40,120 114,237 217,308 93,66 206,105 316,128 155,31 322,26 468,-25zm2187 -60c99,-274 149,-900 149,-1236 0,-338 -307,-456 -524,-196 -167,200 -359,594 -433,477 -104,-128 -260,-463 -351,-522 -155,-106 -384,-97 -464,72 -62,128 -46,625 -36,767 17,219 9,469 139,646 119,161 447,116 532,-45 70,-132 -27,-502 -60,-646 70,83 217,194 318,157 91,-33 157,-116 219,-190 -37,208 -153,551 -85,751 95,285 493,246 596,-35z"/>
  </g>
 </g>
</svg>
